HIERARCHY
ROOT Hips
{
	OFFSET -14.64140 90.27770 -84.91600
	CHANNELS 6 Xposition Yposition Zposition Zrotation Xrotation Yrotation
	JOINT Spine
	{
		OFFSET 0.00000 13.20850 -1.60436
		CHANNELS 3 Zrotation Xrotation Yrotation
		JOINT Spine1
		{
			OFFSET 0.00000 8.61716 0.00000
			CHANNELS 3 Zrotation Xrotation Yrotation
			JOINT Spine2
			{
				OFFSET 0.00000 8.61717 0.00000
				CHANNELS 3 Zrotation Xrotation Yrotation
				JOINT Spine3
				{
					OFFSET 0.00000 8.61717 0.00000
					CHANNELS 3 Zrotation Xrotation Yrotation
					JOINT Neck
					{
						OFFSET 0.00000 11.07920 1.10792
						CHANNELS 3 Zrotation Xrotation Yrotation
						JOINT Neck1
						{
							OFFSET 0.00000 7.08032 0.00000
							CHANNELS 3 Zrotation Xrotation Yrotation
							JOINT Head
							{
								OFFSET 0.00000 7.08031 0.00000
								CHANNELS 3 Zrotation Xrotation Yrotation
								End site
								{
									OFFSET 0.00000 0.00000 0.00000
								}
							}
						}
					}
					JOINT RightShoulder
					{
						OFFSET -0.01000 7.91373 5.19711
						CHANNELS 3 Zrotation Xrotation Yrotation
						JOINT RightArm
						{
							OFFSET -18.41580 0.00000 0.00000
							CHANNELS 3 Zrotation Xrotation Yrotation
							JOINT RightForeArm
							{
								OFFSET -29.11090 0.00000 0.00000
								CHANNELS 3 Zrotation Xrotation Yrotation
								JOINT RightHand
								{
									OFFSET -24.65040 0.00000 0.00000
									CHANNELS 3 Zrotation Xrotation Yrotation
									JOINT RightHandThumb1
									{
										OFFSET -5.35114 -0.85590 3.97906
										CHANNELS 3 Zrotation Xrotation Yrotation
										JOINT RightHandThumb2
										{
											OFFSET -4.52789 0.00000 0.00000
											CHANNELS 3 Zrotation Xrotation Yrotation
											JOINT RightHandThumb3
											{
												OFFSET -2.46976 0.00000 0.00000
												CHANNELS 3 Zrotation Xrotation Yrotation
												End site
												{
													OFFSET 0.00000 0.00000 0.00000
												}
											}
										}
									}
									JOINT RightHandIndex1
									{
										OFFSET -14.26970 0.00000 2.88139
										CHANNELS 3 Zrotation Xrotation Yrotation
										JOINT RightHandIndex2
										{
											OFFSET -5.48836 0.00000 0.00000
											CHANNELS 3 Zrotation Xrotation Yrotation
											JOINT RightHandIndex3
											{
												OFFSET -3.01859 0.00000 0.00000
												CHANNELS 3 Zrotation Xrotation Yrotation
												End site
												{
													OFFSET 0.00000 0.00000 0.00000
												}
											}
										}
									}
									JOINT RightHandMiddle1
									{
										OFFSET -14.26970 0.00000 -0.09147
										CHANNELS 3 Zrotation Xrotation Yrotation
										JOINT RightHandMiddle2
										{
											OFFSET -6.17441 0.00000 0.00000
											CHANNELS 3 Zrotation Xrotation Yrotation
											JOINT RightHandMiddle3
											{
												OFFSET -3.56743 0.00000 0.00000
												CHANNELS 3 Zrotation Xrotation Yrotation
												End site
												{
													OFFSET 0.00000 0.00000 0.00000
												}
											}
										}
									}
									JOINT RightHandRing1
									{
										OFFSET -12.69180 0.00000 -3.06433
										CHANNELS 3 Zrotation Xrotation Yrotation
										JOINT RightHandRing2
										{
											OFFSET -5.62556 0.00000 0.00000
											CHANNELS 3 Zrotation Xrotation Yrotation
											JOINT RightHandRing3
											{
												OFFSET -3.56744 0.00000 0.00000
												CHANNELS 3 Zrotation Xrotation Yrotation
												End site
												{
													OFFSET 0.00000 0.00000 0.00000
												}
											}
										}
									}
									JOINT RightHandPinky1
									{
										OFFSET -11.11390 0.00000 -6.03719
										CHANNELS 3 Zrotation Xrotation Yrotation
										JOINT RightHandPinky2
										{
											OFFSET -4.52789 0.00000 0.00000
											CHANNELS 3 Zrotation Xrotation Yrotation
											JOINT RightHandPinky3
											{
												OFFSET -2.46976 0.00000 0.00000
												CHANNELS 3 Zrotation Xrotation Yrotation
												End site
												{
													OFFSET 0.00000 0.00000 0.00000
												}
											}
										}
									}
								}
							}
						}
					}
					JOINT LeftShoulder
					{
						OFFSET 0.01000 7.91373 5.19711
						CHANNELS 3 Zrotation Xrotation Yrotation
						JOINT LeftArm
						{
							OFFSET 18.41580 0.00000 0.00000
							CHANNELS 3 Zrotation Xrotation Yrotation
							JOINT LeftForeArm
							{
								OFFSET 29.11090 0.00000 0.00000
								CHANNELS 3 Zrotation Xrotation Yrotation
								JOINT LeftHand
								{
									OFFSET 24.65040 0.00000 0.00000
									CHANNELS 3 Zrotation Xrotation Yrotation
									JOINT LeftHandThumb1
									{
										OFFSET 5.35114 -0.85590 3.97906
										CHANNELS 3 Zrotation Xrotation Yrotation
										JOINT LeftHandThumb2
										{
											OFFSET 4.52789 0.00000 0.00000
											CHANNELS 3 Zrotation Xrotation Yrotation
											JOINT LeftHandThumb3
											{
												OFFSET 2.46977 0.00000 0.00000
												CHANNELS 3 Zrotation Xrotation Yrotation
												End site
												{
													OFFSET 0.00000 0.00000 0.00000
												}
											}
										}
									}
									JOINT LeftHandIndex1
									{
										OFFSET 14.26970 0.00000 2.88139
										CHANNELS 3 Zrotation Xrotation Yrotation
										JOINT LeftHandIndex2
										{
											OFFSET 5.48836 0.00000 0.00000
											CHANNELS 3 Zrotation Xrotation Yrotation
											JOINT LeftHandIndex3
											{
												OFFSET 3.01859 0.00000 0.00000
												CHANNELS 3 Zrotation Xrotation Yrotation
												End site
												{
													OFFSET 0.00000 0.00000 0.00000
												}
											}
										}
									}
									JOINT LeftHandMiddle1
									{
										OFFSET 14.26970 0.00000 -0.09147
										CHANNELS 3 Zrotation Xrotation Yrotation
										JOINT LeftHandMiddle2
										{
											OFFSET 6.17440 0.00000 0.00000
											CHANNELS 3 Zrotation Xrotation Yrotation
											JOINT LeftHandMiddle3
											{
												OFFSET 3.56744 0.00000 0.00000
												CHANNELS 3 Zrotation Xrotation Yrotation
												End site
												{
													OFFSET 0.00000 0.00000 0.00000
												}
											}
										}
									}
									JOINT LeftHandRing1
									{
										OFFSET 12.69180 0.00000 -3.06433
										CHANNELS 3 Zrotation Xrotation Yrotation
										JOINT LeftHandRing2
										{
											OFFSET 5.62556 0.00000 0.00000
											CHANNELS 3 Zrotation Xrotation Yrotation
											JOINT LeftHandRing3
											{
												OFFSET 3.56744 0.00000 0.00000
												CHANNELS 3 Zrotation Xrotation Yrotation
												End site
												{
													OFFSET 0.00000 0.00000 0.00000
												}
											}
										}
									}
									JOINT LeftHandPinky1
									{
										OFFSET 11.11390 0.00000 -6.03719
										CHANNELS 3 Zrotation Xrotation Yrotation
										JOINT LeftHandPinky2
										{
											OFFSET 4.52789 0.00000 0.00000
											CHANNELS 3 Zrotation Xrotation Yrotation
											JOINT LeftHandPinky3
											{
												OFFSET 2.46976 0.00000 0.00000
												CHANNELS 3 Zrotation Xrotation Yrotation
												End site
												{
													OFFSET 0.00000 0.00000 0.00000
												}
											}
										}
									}
								}
							}
						}
					}
					JOINT pCube4
					{
						OFFSET 0.00000 10.91090 1.10792
						CHANNELS 3 Zrotation Xrotation Yrotation
						End site
						{
							OFFSET 0.00000 0.00000 0.00000
						}
					}
				}
			}
		}
	}
	JOINT RightUpLeg
	{
		OFFSET -9.98441 0.00000 0.00000
		CHANNELS 3 Zrotation Xrotation Yrotation
		JOINT RightLeg
		{
			OFFSET 0.00000 -42.11790 0.00000
			CHANNELS 3 Zrotation Xrotation Yrotation
			JOINT RightFoot
			{
				OFFSET 0.00000 -45.00020 -0.00001
				CHANNELS 3 Zrotation Xrotation Yrotation
				JOINT RightForeFoot
				{
					OFFSET 0.00000 -3.74820 0.00000
					CHANNELS 3 Zrotation Xrotation Yrotation
					JOINT RightToeBase
					{
						OFFSET 0.00000 0.06325 14.43120
						CHANNELS 3 Zrotation Xrotation Yrotation
						End site
						{
							OFFSET 0.00000 0.00000 0.00000
						}
					}
				}
			}
		}
	}
	JOINT LeftUpLeg
	{
		OFFSET 9.98441 0.00000 0.00000
		CHANNELS 3 Zrotation Xrotation Yrotation
		JOINT LeftLeg
		{
			OFFSET 0.00000 -42.11800 0.00000
			CHANNELS 3 Zrotation Xrotation Yrotation
			JOINT LeftFoot
			{
				OFFSET 0.00000 -45.00070 0.00000
				CHANNELS 3 Zrotation Xrotation Yrotation
				JOINT LeftForeFoot
				{
					OFFSET 0.00000 -3.74824 0.00000
					CHANNELS 3 Zrotation Xrotation Yrotation
					JOINT LeftToeBase
					{
						OFFSET 0.00000 0.06325 14.43110
						CHANNELS 3 Zrotation Xrotation Yrotation
						End site
						{
							OFFSET 0.00000 0.00000 0.00000
						}
					}
				}
			}
		}
	}
}
MOTION
Frames: 4
Frame Time: 0.050000
-0.04449240917297892 0.024899434768775347 -0.040465658223073124 0.038907140830820204 -0.009894808983098323 0.002394322815971143 -2.488892040928349 -0.1930798700569173 -0.8906266487682433 -0.991787763022943 3.7495385556358136 0.410232025770587 -1.3277852326765573 -2.175800895896324 -1.2633188959883137 0.8199672410849066 0.16094585421608165 -0.8421108249116875 1.1873737851125339 14.622104461983513 -3.558987603062999 0.4339633012505024 1.2121502376625357 -9.40874476348304 1.6452527080491985 -13.119455314826109 -0.7836944162981863 -7.483735861577117 2.353625600665413 -15.654807697836661 68.32782615367724 -2.0833730911980117 13.165930529815714 22.542874482640936 3.0865522130967307 98.35087042683115 10.991685627117421 -0.32818763425379344 -2.013217451082009 4.527126267632952 -0.0828869292896661 -1.6160054618536914 -0.044137711018345994 0.03957175876535584 -56.27891482932161 0.024512398421077004 0.03035864170086099 -56.21344230359574 -38.73627643867191 -0.043913495047024645 -0.02943313791396346 -0.03444331224911215 -0.012876976379058156 0.0011892559828552635 0.03446814223050794 -0.021574131416088473 0.03307034540899318 -36.69806003169047 -0.04988770711166926 0.027979340285178258 0.01747548741842035 0.047172944251546285 0.007794575097560328 -0.006657421907101696 -0.00012692532304521515 0.01965104486960084 -19.731055556043998 0.028349396893479536 0.02270626360134129 0.034570639963763306 0.03429098764137155 -0.04377368260622791 0.022149238184985362 0.04480412294201667 -0.02380345703440605 24.077605915993097 0.04653647439786325 0.01879944603425342 28.857029624899344 -0.031543479618816025 0.041907204711728 28.840574339802348 0.016967629362529563 -0.01422008395510672 7.286792834366981 1.7726790696835875 13.218025163955245 -68.39574963789586 15.178925505041422 -12.640627742134969 -22.46677802981951 1.966954183403455 -100.60408860247847 -1.8843744672995593 -1.768263106383368 -1.7861940689687588 -0.4366954983192115 0.05516429306650769 -8.155391438572794 0.018682240108196572 0.011668070662113136 44.59470046532771 -0.0021508286794307066 -0.012025768002356099 44.520528314640636 12.429749939778729 -0.012849157825997598 -0.019127765148194902 0.03053425219013444 -0.014209266552417473 0.005865427755538015 0.01721239120441814 0.012529667630774545 -0.01475135699487334 11.153960624179536 0.038835125750331205 -0.025772867074940208 0.007707462765458879 0.013585044495514464 0.024058407334465043 0.0242913774658801 0.036031731940700196 0.04136491424381718 4.7916808036679805 -0.01123715501190728 8.959645824514145e-05 -0.016722997912704922 -0.03840223429470263 -0.035553561569345374 -0.03809386357069011 0.008703911074293597 0.00929190408399429 -5.582044292284846 0.03291382722249376 -0.03142399071550422 -6.736092413264422 0.04372755351559123 0.04384045275012515 -6.747682052509407 -0.019607369007343087 -0.01683279533779834 0.029502118558026563 0.0010416749541452164 0.04562717289050661 8.056144012511854 3.485699389989876 -19.254132676739733 0.02905762124289544 10.404372656055763 0.00205602439827794 -5.611182289073094 -15.623116539470676 3.2058254432375497 -0.0034139258662583515 -0.001363404005235874 0.023706522260137718 -0.018895931454049407 4.662641360330339 -0.02815268315749039 12.439728463317017 -8.260328823470008 6.858167832975361 -0.04657189285173894 46.404394043573674 -0.005304303153780864 -4.374881179226356 -14.737828456611322 -3.854762511847059 -0.0067823467749863 0.02022943453777021 0.042019230777246196 0.04113434830250802 -10.763410075558198 -0.03386517461369384 
0.009031138109713288 0.0020494651731344233 0.047755743868671124 -0.028325552687490742 0.0422386548147457 0.044884754298313234 -2.5520489390728964 -0.2078368034057928 -0.9011286558464421 -0.9617885313752788 3.7191133962912333 0.3242880837128882 -1.398376220808306 -2.18256607959593 -1.248879065497634 0.7706809189148686 0.1685280741876407 -0.8837551578609404 1.2232612019823796 14.695392638229656 -3.4068198784218904 0.43788267160229816 1.3785925905247813 -9.034350936597557 1.5571253018523783 -12.927271153294209 -0.6944128530034263 -7.551272072552008 2.431589000887802 -15.426197600422217 67.91103816624103 -2.3407327679734644 15.14949219900523 21.910137761334678 2.931410665676427 98.0543759494836 11.614018295492025 -0.3254782296345189 -2.1968798394096427 4.543656544046695 -0.12823414740919356 -1.5757561447204254 0.04509261920578158 0.028171386840620056 -56.24264895993417 0.023265166336960803 0.03278804854069047 -56.25904604767233 -38.78550509289745 -0.04295604614656262 -0.03617075249773895 0.031815478748313475 0.04903269162476675 -0.04440109998639495 -0.039425793364859095 0.006094408815152732 0.009059687106542888 -36.68960381305245 0.013708210186679566 0.016981339993330128 0.028702112750340812 -0.00844902106156115 0.030424502408318916 0.003490234935097058 0.018214227479644532 0.03187014130355999 -19.729383390490778 0.018582695022720516 -0.013311180989564358 0.03714315855967196 0.026078605632713654 -0.016629295482835278 0.0223577105967215 0.03738020752376547 -0.01773185521928341 24.05196233498379 0.04629672182735023 0.013529489857231996 28.875943841429482 0.004046250940634705 -0.013601581265269603 28.913993751747412 -0.046575252211633986 -0.04435724642527558 7.3041645101092385 1.761974429445628 13.012020516750564 -68.01183123223193 15.661448592739111 -13.717899646210833 -21.454572643357984 1.346584232005617 -99.89492239797015 -2.5825752813603553 -1.8900305381866058 -1.490568921007292 -0.4598979610180409 0.03443365799287999 -8.123946760092513 -0.005942409295503496 -0.04415940480915782 44.57351357273737 0.033332894403684095 0.04515968991488694 44.569316697577 12.507113024248145 -0.011942162622217166 -0.009569530234581769 -0.017912206893589883 -0.003677563474154455 -0.015673481408072384 -0.04204088523458261 -0.029517579931981786 0.04347924045523797 11.078689939073247 0.0031318735693097984 -0.012479475673565927 0.01659131584878004 0.008310097038379803 -0.01863691318518527 0.0009916439739901628 -0.021543919434547427 0.017027608879917583 4.732335500375626 -0.03130770704165668 -0.018241027707896304 0.00030833632116193584 0.016613609104905287 -0.025968560983230388 -0.003582189016869014 0.02547790815036308 -0.020799330187064747 -5.612117919731748 0.03843674130409766 0.005893490354299768 -6.67588521191424 -0.044610749612703705 -0.0255339131119735 -6.676428101897774 0.021450286222518388 0.012102982329357302 0.0020030704486690438 0.008972634288392923 -0.0020956107989770524 8.051099713604987 3.518858206375076 -19.192055839992996 -0.02917741074925757 10.350696323566318 0.02435644655880361 -5.584818799610341 -15.70935454032452 3.1431100758842785 -0.03208158773491687 0.048257161357464586 0.04166144065331537 -0.04056864835160811 4.6557046451560655 -0.00699002651330958 12.486994556610572 -8.241983259526844 6.843634856908484 -0.026844102251770387 46.355156427809774 0.0210254302391863 -4.3664069457197545 -14.761350392550895 -3.822734650932504 -0.02840487826335708 -0.014823325770659673 0.04135712593382203 0.011555950707918618 -10.784252330981806 -0.022323928130969894 
0.025537055021471425 -0.028764439343928958 0.013626976966094976 0.04204566714972807 0.009370880182540673 -0.002599957812844904 -2.653201692564175 -0.22118296260887166 -0.8001186535590536 -0.9304437214414361 3.6600546662520026 0.38874616268820167 -1.4006273692199644 -2.2060527476018166 -1.2228955531901506 0.6325195180355824 0.13995003387066715 -0.8447594000035196 1.198277148125731 14.761340457929721 -3.1833032279368654 0.41824875761842273 1.4809026514613084 -8.535139472193578 1.4732655804565047 -12.645283936006404 -0.682819323504203 -7.653278861796219 2.4646836312076985 -15.218988992609345 67.91182794565142 -1.7794072736406716 17.099387595055138 21.412432344184243 2.977148622153328 97.65611959597571 12.25936952496907 -0.3732237054183816 -2.518196484758632 4.484476519018435 -0.12409642904567925 -1.6288719667271003 0.04361325493774861 -0.028531623887153912 -56.19690987240004 0.019243077931649522 -0.020269877175314536 -56.19820762695021 -38.76530066968936 0.007118957042589805 0.01167307746802388 -0.0035387168327650803 -0.013569010485842482 0.0019157703471365264 -6.0396855987984144e-05 0.005114267320490036 0.015275316804028386 -36.68839768050474 0.00494266993236611 0.011479206127462942 0.015063377814965332 0.0038881272562095873 0.030559576378131118 -0.02974135363462924 0.01744781352726851 -0.04088153928765266 -19.789695664858936 -0.003351260615675816 -0.00880210372055964 -0.013140018116265478 -0.0019312434854377389 0.027087310371142037 -0.006313774912155218 0.008966494799598098 -0.0335177704355458 24.048764668065466 0.021187692601542307 -0.006963559268234821 28.894898573764298 0.006825960806547101 0.008332044856193268 28.897263373466497 0.00969228050798858 0.024591380137227455 7.460403952776359 1.8513060617394148 12.927292527812172 -67.90539019821873 16.2472744456135 -14.887550345745119 -21.62541403857466 1.4922366400131881 -99.41125496257236 -3.4377165807283907 -2.188922863639934 -1.0324977648132925 -0.46856938676413507 0.060530404582723615 -8.101931854215211 -0.02020734063253258 0.04796864595948389 44.51897710080702 0.005962132105286295 -0.003924964355036048 44.538567272294486 12.410134285707974 0.0066999082156658195 -0.04029361801333203 0.041581603267525975 -0.024100518324979635 0.03359523351295822 -0.03383916334157315 -0.0042211830084418036 0.030398484097633124 11.110199983941975 0.020399719395289673 0.037234225812997734 -0.04685388326863669 0.0038177560404013913 -0.029035389076446844 0.044612466142260554 0.00866686463762626 0.00684412946614967 4.763805450501396 0.030265405749851145 0.002084041501029572 0.019218657838181726 -0.03834794741308281 -0.008004346603606527 -0.02631843495824787 -0.007667271610314905 -0.002251920176005321 -5.593320588042223 0.038971431473137905 -0.04151982427060611 -6.691006015529903 -0.011937080026271776 0.010152210468596587 -6.751318545591036 -0.045770419244882614 -0.04959124706462682 0.022733132399418966 -0.03782001963555158 -0.0013764244691239938 8.050556332075452 3.4900623540319984 -19.18030038494925 0.02792309756394634 10.436999700814534 0.03535772010519582 -5.629213169807188 -15.638140393534908 3.239673111134593 -0.03925335258669078 -0.030754909924425505 -0.0060795250671477775 0.03341713812761915 4.669959829890865 0.03791347865105024 12.46278816283147 -8.23594090253177 6.85889843043605 -0.00886018053302998 46.3588435975964 -0.022665115220839426 -4.28901884349791 -14.797948650292938 -3.8319921828872148 0.03668503082255254 -0.011167223090407522 0.042756775045564833 0.003318185574591097 -10.78320712254162 0.0071435112905876225 
0.00808770320445049 0.00961006240342168 -0.024733591438999336 -0.02073116051027157 -0.02152459482501097 0.03309952428421457 -2.7213681453563487 -0.18361742847154608 -0.8401406789025708 -0.9347636139772797 3.649010110803087 0.40901381431238837 -1.401295471201369 -2.2802440670524686 -1.1346051416699137 0.5397867628119319 0.14080773639354854 -0.874418536560186 1.1005693866638209 14.86790779246768 -2.9508209170169817 0.44728725071176384 1.5927600841735678 -7.835397391437578 1.4749324751027082 -12.460147304596363 -0.5834159216864541 -7.7493330659287585 2.45472819684734 -14.973123522754662 68.4408038526078 -1.0277407733696482 18.60286330884131 21.76621694434887 3.2094698022957937 97.10615791363054 12.990503210583181 -0.39987667641826447 -2.831191729352651 4.48964993751137 -0.1743978966088321 -1.5621996977445833 0.02536450128219821 0.04887351653582983 -56.28136693302399 -0.018323947142368336 0.024146074430350432 -56.23555924733789 -38.79614627082511 -0.009532271749980567 -0.005206059283721507 0.04351959139270546 -0.04523176925125463 0.03102116273680401 0.008613066698268824 -0.04467742981609898 0.005450751248947641 -36.73476278473108 -0.012414277618732822 -0.03230467342072125 -0.04056025826154828 -0.003919879107293228 0.04253932619255129 0.014010458490188416 -0.014016845144602759 -0.043707528282493906 -19.744154779693762 0.005665158827049525 0.009175318539054194 -0.016345601026400446 -0.010674595086334683 -0.0231493665769955 -0.023574866098513503 -0.03153035082109042 0.033581581997277364 24.042875156646648 -0.04134587957518291 -0.010730506747237911 28.871727841455385 -0.024119744308600782 0.005948683237720162 28.91337728421352 -0.016656423617090785 0.010555426479640832 7.715084203535662 1.901455082082218 12.759320242919069 -68.03973035424856 16.23419721389505 -16.236038995766112 -23.04188782406774 2.3536157554643413 -99.22606944698789 -4.176308247596293 -2.2624306823835423 -0.8925607206991515 -0.4686527558145738 0.0647358424381547 -8.126416232540656 -0.04165703870474869 0.02507829018861009 44.59378404131615 -0.026668139836260984 -0.013926775158355716 44.60307577744216 12.41889889231686 -0.02904232128040006 0.015178539473873594 -0.036926961626728816 0.030308771466226764 -0.014573207869495348 0.001664622681645721 -0.00660416635909001 0.03517676267601816 11.103908183582764 0.02870547005645975 0.03314388444942259 0.026493882241265948 0.021002259770351382 0.038223279770724476 -0.03947478213906153 0.040793659157129035 -0.028769324915181183 4.805450003403346 0.010989440357964694 -0.03293436969110985 0.012343303350040236 0.04394055728505886 0.021870132551776292 -0.0067808850425052835 -0.016799176849083212 -0.012872013162027579 -5.630480337165033 -0.0161618797811596 -0.009479320677032227 -6.732081771163964 0.02624165537093862 -0.039268632004142295 -6.696660339365022 -0.007657219827675257 -0.008489224487164118 0.013313053139903792 -0.04728314577942226 0.01439715238501779 8.091367234406569 3.473431874027166 -19.17311075326623 0.022278041999854455 10.387656014668487 -0.012360646748964005 -5.647198778442195 -15.625770208751998 3.183457719634119 -0.017759312127577226 -0.022347852932779296 -0.038367390960274896 0.01605766230817309 4.7131543197611485 0.029916232960291844 12.465596394836624 -8.24121605921796 6.871870497238335 -0.03708872401436519 46.33031688757563 -0.02590621837979072 -4.350938809915842 -14.748826261424316 -3.840328552112784 0.012090376574214388 0.008679994590882879 -0.025408518709608804 0.03895417504149188 -10.767048945960225 -0.006183259303043876 
